<?xml version="1.0" encoding="UTF-8"?>
<!-- Generator: visioncortex VTracer 0.6.4 -->
<svg version="1.1" xmlns="http://www.w3.org/2000/svg" width="512" height="512">
<path d="M0 0 C17.74 15.73 33.37 33.5 44.99 54.26 C45.44 55.07 45.89 55.88 46.36 56.71 C74.62 107.57 81.47 166.14 65.86 222.27 C53.53 264.37 27.84 303.38 -7.01 330.26 C-7.57 330.69 -8.12 331.12 -8.68 331.56 C-54.29 366.72 -111.17 381.66 -168.22 374.74 C-222.7 367.36 -274.26 339.02 -308.01 295.26 C-308.44 294.71 -308.87 294.16 -309.31 293.59 C-344.47 247.98 -359.41 191.11 -352.49 134.06 C-344.93 78.25 -315.72 27.04 -271.07 -7.43 C-263.68 -13.02 -256.11 -18.21 -248.01 -22.74 C-247.21 -23.19 -246.4 -23.64 -245.57 -24.11 C-167 -67.76 -68.38 -58.96 0 0 Z " fill="#292929" transform="translate(396.013671875,93.736328125)"/>
<path d="M0 0 C6.23 3.73 10.54 9.01 12.51 16.05 C12.96 20.43 12.94 24.78 12.93 29.18 C12.94 30.49 12.95 31.8 12.96 33.15 C12.98 36.73 12.98 40.31 12.98 43.9 C12.98 46.9 12.99 49.9 13 52.9 C13.02 59.98 13.02 67.06 13.01 74.14 C13.01 81.42 13.03 88.71 13.07 95.99 C13.1 102.27 13.11 108.54 13.1 114.81 C13.1 118.55 13.11 122.29 13.13 126.02 C13.16 130.2 13.14 134.37 13.13 138.55 C13.14 139.77 13.15 141 13.17 142.26 C13.09 149.82 12 155.81 7.51 162.05 C1.1 167.96 -3.46 169.48 -12.15 169.4 C-18.4 168.76 -22.28 165.61 -26.36 161.05 C-29.64 156.43 -30.74 152.88 -30.76 147.23 C-30.77 146.07 -30.78 144.9 -30.79 143.7 C-30.79 142.43 -30.79 141.16 -30.79 139.85 C-30.8 138.5 -30.81 137.14 -30.82 135.78 C-30.84 132.1 -30.85 128.42 -30.86 124.74 C-30.86 122.44 -30.87 120.14 -30.87 117.84 C-30.9 109.8 -30.91 101.77 -30.91 93.73 C-30.92 86.25 -30.95 78.77 -30.99 71.29 C-31.02 64.86 -31.04 58.43 -31.04 52 C-31.04 48.16 -31.05 44.33 -31.08 40.49 C-31.1 36.88 -31.11 33.27 -31.09 29.66 C-31.09 27.71 -31.11 25.76 -31.13 23.82 C-31.06 15.66 -29.81 10.37 -23.97 4.54 C-17.16 -1.45 -8.72 -3.31 0 0 Z " fill="#E3E5E9" transform="translate(222.48828125,171.9453125)"/>
<path d="M0 0 C6.28 2.82 11 8.02 13.65 14.35 C13.91 16.99 13.91 16.99 13.92 20.05 C13.92 21.22 13.93 22.38 13.94 23.58 C13.94 24.85 13.94 26.12 13.94 27.43 C13.94 28.79 13.95 30.15 13.96 31.51 C13.98 35.19 13.98 38.87 13.98 42.56 C13.98 44.86 13.99 47.17 13.99 49.47 C14.01 57.51 14.02 65.55 14.02 73.6 C14.02 81.08 14.04 88.57 14.07 96.06 C14.1 102.49 14.11 108.93 14.11 115.36 C14.11 119.2 14.11 123.04 14.13 126.88 C14.15 130.5 14.15 134.11 14.14 137.73 C14.13 139.68 14.15 141.63 14.17 143.58 C14.11 151.56 13.27 157.15 7.9 163.37 C7.34 163.82 6.79 164.26 6.21 164.72 C5.38 165.41 5.38 165.41 4.53 166.12 C-1.39 169.98 -7.48 170.22 -14.35 169.35 C-20.76 166.84 -24.64 162.44 -27.93 156.5 C-30.23 150.99 -29.79 145.11 -29.77 139.23 C-29.78 137.92 -29.79 136.6 -29.8 135.25 C-29.82 131.67 -29.82 128.09 -29.82 124.5 C-29.82 121.51 -29.83 118.51 -29.84 115.51 C-29.86 108.43 -29.86 101.34 -29.85 94.26 C-29.85 86.98 -29.87 79.69 -29.91 72.41 C-29.94 66.14 -29.95 59.86 -29.94 53.59 C-29.94 49.85 -29.95 46.12 -29.97 42.38 C-30 38.2 -29.98 34.03 -29.97 29.86 C-29.98 28.63 -29.99 27.41 -30.01 26.14 C-29.93 17.95 -28.55 10.91 -22.84 4.7 C-16.13 -1.16 -8.61 -2.39 0 0 Z " fill="#E3E5E9" transform="translate(306.3515625,171.65234375)"/>
</svg>
