<?xml version="1.0" encoding="UTF-8"?>
<!-- Generator: visioncortex VTracer 0.6.4 -->
<svg version="1.1" xmlns="http://www.w3.org/2000/svg" width="512" height="512">
<path d="M0 0 C17.74 15.73 33.37 33.5 44.99 54.26 C45.44 55.07 45.89 55.88 46.36 56.71 C74.62 107.57 81.47 166.14 65.86 222.27 C53.53 264.37 27.84 303.38 -7.01 330.26 C-7.57 330.69 -8.12 331.12 -8.68 331.56 C-54.29 366.72 -111.17 381.66 -168.22 374.74 C-222.7 367.36 -274.26 339.02 -308.01 295.26 C-308.44 294.71 -308.87 294.16 -309.31 293.59 C-344.47 247.98 -359.41 191.11 -352.49 134.06 C-344.93 78.25 -315.72 27.04 -271.07 -7.43 C-263.68 -13.02 -256.11 -18.21 -248.01 -22.74 C-247.21 -23.19 -246.4 -23.64 -245.57 -24.11 C-167 -67.76 -68.38 -58.96 0 0 Z " fill="#292929" transform="translate(396.013671875,93.736328125)"/>
<path d="M0 0 C8.95 4.62 17.17 10.59 25.48 16.26 C30.25 19.51 35.03 22.75 39.81 25.99 C40.8 26.66 41.79 27.33 42.81 28.02 C53.26 35.09 63.8 42.02 74.35 48.95 C87.23 57.41 100.1 65.9 112.89 74.52 C114.34 75.5 115.79 76.47 117.25 77.45 C137.88 91.3 137.88 91.3 140.79 101.07 C141.67 107.12 140.03 112.93 136.79 118.07 C131.66 123.13 125.93 127.19 119.89 131.08 C119.05 131.63 118.2 132.19 117.32 132.76 C115.5 133.95 113.67 135.14 111.84 136.33 C106.89 139.55 101.95 142.79 97.01 146.03 C95.99 146.7 94.98 147.36 93.93 148.05 C83.53 154.88 73.22 161.84 62.91 168.82 C49.65 177.8 36.36 186.72 22.99 195.54 C21.33 196.63 19.67 197.73 18.02 198.82 C15.74 200.33 13.46 201.83 11.17 203.33 C10.51 203.77 9.85 204.21 9.16 204.66 C0.65 210.23 -5.87 212.46 -16.21 211.07 C-22.41 208.73 -26.02 204.81 -29.13 199.08 C-31.49 192.54 -30.9 185.35 -30.86 178.48 C-30.87 176.7 -30.87 174.92 -30.89 173.15 C-30.91 168.33 -30.9 163.52 -30.88 158.7 C-30.87 153.65 -30.88 148.61 -30.89 143.56 C-30.9 135.08 -30.89 126.6 -30.86 118.13 C-30.84 108.34 -30.85 98.55 -30.87 88.77 C-30.9 80.35 -30.9 71.93 -30.89 63.52 C-30.88 58.49 -30.88 53.47 -30.89 48.45 C-30.91 43.73 -30.9 39.01 -30.87 34.29 C-30.86 32.56 -30.86 30.83 -30.88 29.1 C-30.94 18.74 -30.45 10.91 -23.25 2.88 C-16.36 -1.91 -7.91 -3.32 0 0 Z " fill="#E4E6EA" transform="translate(222.212158203125,150.929443359375)"/>
</svg>
